<svg xmlns="http://www.w3.org/2000/svg" fill="none" viewBox="0 0 513 513" height="100" width="100" stroke-width="1" id="Abstract-Avatar-15-Square--Streamline-Abstract.svg"><desc>Abstract Avatar 15 Square Streamline Emoji: https://streamlinehq.com</desc><g clip-path="url(#a)"><path fill="#fafafa" d="M.694.871h512v512h-512z"></path><path fill="#3290ff" d="m279.432 143.523 74.679-70.9332 74.68 70.9332 50.44-42.56 32.786 83.094 93.313-14.187-23.959 103.36 94.575 40.533-63.05 103.36 40.352 62.827-71.877 48.64-227.26-4.292-227.26 4.292-71.8767-48.64 40.352-62.827-63.0499-103.36 94.5746-40.533-23.959-103.36 93.314 14.187 32.786-83.094 50.44 42.56Z"></path><path stroke="#000000" stroke-linecap="round" stroke-linejoin="round" stroke-width="16" d="M246.276 328.59c16.57 15.998 43.433 16 60 .004l-60-.004Z"></path><path stroke="#000000" stroke-linecap="round" stroke-width="16" d="M252.276 260.59c-9.941 10.665-26.059 10.667-36 .003"></path><path stroke="#000000" stroke-linecap="round" stroke-width="16" d="M336.276 260.59c-9.941 10.665-26.059 10.667-36 .003"></path></g><defs><clipPath id="a"><path fill="#ffffff" d="M0 0h512v512H0z" transform="translate(.276 .59)"></path></clipPath></defs></svg>