<svg xmlns="http://www.w3.org/2000/svg" fill="none" viewBox="0 0 513 513" height="100" width="100" stroke-width="1" id="Abstract-Avatar-8-Square--Streamline-Abstract.svg"><desc>Abstract Avatar 8 Square Streamline Emoji: https://streamlinehq.com</desc><g clip-path="url(#a)"><path fill="#fafafa" d="M.694.871h512v512h-512z"></path><path fill="#f4583e" fill-rule="evenodd" d="M364.761 293.849c11.447-21.359 17.892-45.486 17.892-71.027 0-87.389-75.451-158.2322-168.524-158.2322V207.051c-12.715-20.699-30.363-38.457-52.496-51.331-75.5406-43.938-174.7133-14.336-221.5086 66.118l123.8341 72.027c-24.3524.632-48.6299 7.037-70.90793 19.804C-82.7707 357.12-106.721 457.807-60.4437 538.559L63.497 467.532c-11.4463 21.359-17.8913 45.487-17.8913 71.028 0 87.389 75.4503 158.232 168.5233 158.232V554.33c12.715 20.699 30.364 38.458 52.497 51.331 75.54 43.938 174.713 14.336 221.508-66.118L364.3 467.516c24.352-.631 48.63-7.036 70.908-19.803 75.821-43.451 99.771-144.138 53.494-224.891l-123.941 71.027Zm-150.72 86.479c.029-.052.059-.103.088-.154l0 .154-.088 0Zm.088.726v.154l.089-.154-.089 0Z" clip-rule="evenodd"></path><path stroke="#000000" stroke-linecap="round" stroke-width="16" d="M196.276 316.59c-9.941 10.665-26.059 10.667-36 .003"></path><path stroke="#000000" stroke-linecap="round" stroke-width="16" d="M280.276 316.59c-9.941 10.665-26.059 10.667-36 .003"></path><path fill="#000000" d="M204.276 382.59a16 24 0 1 0 32 0 16 24 0 1 0-32 0"></path></g><defs><clipPath id="a"><path fill="#ffffff" d="M0 0h512v512H0z" transform="translate(.276 .59)"></path></clipPath></defs></svg>