<svg xmlns="http://www.w3.org/2000/svg" fill="none" viewBox="0 0 513 513" height="100" width="100" stroke-width="1" id="Abstract-Avatar-42-Square--Streamline-Abstract.svg"><desc>Abstract Avatar 42 Square Streamline Emoji: https://streamlinehq.com</desc><g clip-path="url(#a)"><path fill="#fafafa" d="M.694.871h512v512h-512z"></path><path fill="#47b86d" d="m448.416 106.193 118.481 442.176c13.3 49.637-68.187 114.597-182.007 145.095-113.819 30.498-216.869 14.984-230.17-34.653L36.2397 216.635C22.9399 166.999 104.427 102.038 218.247 71.5405c113.819-30.4978 216.87-14.9835 230.169 34.6525Z"></path><path stroke="#000000" stroke-linecap="round" stroke-linejoin="round" stroke-width="16" d="M166.237 275.711c20.146 11.165 46.094 4.214 57.957-15.525l-57.957 15.525Z"></path><path stroke="#000000" stroke-linecap="round" stroke-width="16" d="M154.433 208.477c-6.843 12.875-22.411 17.048-34.773 9.32"></path><path stroke="#000000" stroke-linecap="round" stroke-width="16" d="M235.571 186.734c-6.842 12.876-22.411 17.048-34.772 9.32"></path></g><defs><clipPath id="a"><path fill="#ffffff" d="M0 0h512v512H0z" transform="matrix(1 0 0 -1 .276 512.59)"></path></clipPath></defs></svg>